<svg width="140" height="27" viewBox="0 0 140 27" fill="none" xmlns="http://www.w3.org/2000/svg">
<path d="M7.5 24.5L1 17.5L7.5 15L12 20L17.5 15L12 7.5V12.5L1 10L5.5 4.5" stroke="white" stroke-width="2" stroke-linecap="round" stroke-linejoin="round"/>
<path d="M39.486 19.086V21H28.31V5.6H39.178V7.514H30.51V12.244H38.232V14.114H30.51V19.086H39.486ZM52.8649 9.34L47.7609 21H45.6049L40.5009 9.34H42.7009L46.7049 18.69L50.7969 9.34H52.8649ZM56.86 11.298C57.2267 10.6233 57.7693 10.11 58.488 9.758C59.2067 9.406 60.0793 9.23 61.106 9.23V11.276C60.9887 11.2613 60.8273 11.254 60.622 11.254C59.478 11.254 58.576 11.5987 57.916 12.288C57.2707 12.9627 56.948 13.9307 56.948 15.192V21H54.836V9.34H56.86V11.298ZM68.5956 21.132C67.4369 21.132 66.3956 20.8753 65.4716 20.362C64.5476 19.8487 63.8216 19.1447 63.2936 18.25C62.7803 17.3407 62.5236 16.314 62.5236 15.17C62.5236 14.026 62.7803 13.0067 63.2936 12.112C63.8216 11.2027 64.5476 10.4987 65.4716 10C66.3956 9.48667 67.4369 9.23 68.5956 9.23C69.7543 9.23 70.7883 9.48667 71.6976 10C72.6216 10.4987 73.3403 11.2027 73.8536 12.112C74.3816 13.0067 74.6456 14.026 74.6456 15.17C74.6456 16.314 74.3816 17.3407 73.8536 18.25C73.3403 19.1447 72.6216 19.8487 71.6976 20.362C70.7883 20.8753 69.7543 21.132 68.5956 21.132ZM68.5956 19.284C69.3436 19.284 70.0109 19.1153 70.5976 18.778C71.1989 18.426 71.6683 17.942 72.0056 17.326C72.3429 16.6953 72.5116 15.9767 72.5116 15.17C72.5116 14.3633 72.3429 13.652 72.0056 13.036C71.6683 12.4053 71.1989 11.9213 70.5976 11.584C70.0109 11.2467 69.3436 11.078 68.5956 11.078C67.8476 11.078 67.1729 11.2467 66.5716 11.584C65.9849 11.9213 65.5156 12.4053 65.1636 13.036C64.8263 13.652 64.6576 14.3633 64.6576 15.17C64.6576 15.9767 64.8263 16.6953 65.1636 17.326C65.5156 17.942 65.9849 18.426 66.5716 18.778C67.1729 19.1153 67.8476 19.284 68.5956 19.284ZM79.1493 7.514H73.8693V5.6H86.6073V7.514H81.3273V21H79.1493V7.514ZM90.4401 11.298C90.8067 10.6233 91.3494 10.11 92.0681 9.758C92.7867 9.406 93.6594 9.23 94.6861 9.23V11.276C94.5687 11.2613 94.4074 11.254 94.2021 11.254C93.0581 11.254 92.1561 11.5987 91.4961 12.288C90.8507 12.9627 90.5281 13.9307 90.5281 15.192V21H88.4161V9.34H90.4401V11.298ZM101.514 9.23C103.127 9.23 104.359 9.626 105.21 10.418C106.075 11.21 106.508 12.3907 106.508 13.96V21H104.506V19.46C104.154 20.0027 103.648 20.4207 102.988 20.714C102.342 20.9927 101.572 21.132 100.678 21.132C99.3723 21.132 98.3236 20.8167 97.5316 20.186C96.7543 19.5553 96.3656 18.7267 96.3656 17.7C96.3656 16.6733 96.7396 15.852 97.4876 15.236C98.2356 14.6053 99.4236 14.29 101.052 14.29H104.396V13.872C104.396 12.9627 104.132 12.266 103.604 11.782C103.076 11.298 102.298 11.056 101.272 11.056C100.582 11.056 99.9076 11.1733 99.2476 11.408C98.5876 11.628 98.0303 11.9287 97.5756 12.31L96.6956 10.726C97.297 10.242 98.0156 9.87533 98.8516 9.626C99.6876 9.362 100.575 9.23 101.514 9.23ZM101.03 19.504C101.836 19.504 102.533 19.328 103.12 18.976C103.706 18.6093 104.132 18.096 104.396 17.436V15.808H101.14C99.3503 15.808 98.4556 16.4093 98.4556 17.612C98.4556 18.1987 98.683 18.6607 99.1376 18.998C99.5923 19.3353 100.223 19.504 101.03 19.504ZM120.519 9.34L115.415 21H113.259L108.155 9.34H110.355L114.359 18.69L118.451 9.34H120.519ZM132.706 15.236C132.706 15.3973 132.691 15.61 132.662 15.874H123.202C123.334 16.9007 123.781 17.7293 124.544 18.36C125.321 18.976 126.282 19.284 127.426 19.284C128.819 19.284 129.941 18.8147 130.792 17.876L131.958 19.24C131.43 19.856 130.77 20.3253 129.978 20.648C129.201 20.9707 128.328 21.132 127.36 21.132C126.128 21.132 125.035 20.8827 124.082 20.384C123.129 19.8707 122.388 19.1593 121.86 18.25C121.347 17.3407 121.09 16.314 121.09 15.17C121.09 14.0407 121.339 13.0213 121.838 12.112C122.351 11.2027 123.048 10.4987 123.928 10C124.823 9.48667 125.827 9.23 126.942 9.23C128.057 9.23 129.047 9.48667 129.912 10C130.792 10.4987 131.474 11.2027 131.958 12.112C132.457 13.0213 132.706 14.0627 132.706 15.236ZM126.942 11.012C125.93 11.012 125.079 11.32 124.39 11.936C123.715 12.552 123.319 13.3587 123.202 14.356H130.682C130.565 13.3733 130.161 12.574 129.472 11.958C128.797 11.3273 127.954 11.012 126.942 11.012ZM135.639 4.676H137.751V21H135.639V4.676Z" fill="white"/>
</svg>
